<svg width="200" height="25" viewBox="0 0 200 25" fill="none" xmlns="http://www.w3.org/2000/svg">
<path d="M12.3284 20.03C8.10344 20.03 4.66144 16.64 4.66144 12.478C4.66144 8.31603 8.10244 4.92503 12.3264 4.92503H12.8064V0.332031H12.3274C5.53444 0.332031 0.00244141 5.78303 0.00244141 12.477C0.00244141 19.215 5.53444 24.666 12.3284 24.666H12.8074V20.032H12.3284V20.03Z" fill="#FF4B5F"/>
<path fill-rule="evenodd" clip-rule="evenodd" d="M14.8105 6.90039V0.591797C20.4734 1.70703 24.6975 6.59961 24.6975 12.4785C24.6975 18.4023 20.4714 23.293 14.8105 24.3672V18.0586H12.3274C9.19238 18.0586 6.6665 15.5684 6.6665 12.4805C6.6665 9.39062 9.19238 6.90039 12.3286 6.90039H14.8105ZM38.5916 17.9707C39.8755 17.9746 41.1204 17.5352 42.1184 16.7266L44.0784 18.6602C42.6414 19.9453 40.7253 20.7188 38.5916 20.7188C33.9744 20.7188 30.2725 16.9844 30.2725 12.4785C30.2725 7.97266 33.9744 4.28125 38.5916 4.28125C40.6655 4.27539 42.6675 5.04102 44.2095 6.42773L42.2495 8.35742C41.2385 7.46875 39.9375 6.98047 38.5916 6.98633C35.4976 6.98633 33.0164 9.43164 33.0164 12.4785C33.0164 15.5254 35.4985 17.9707 38.5916 17.9707ZM124.612 12.2207L130.752 4.92578H133.191V20.0312H130.752V9.13086L124.612 16.2539L118.384 8.95898V20.0332H115.9V4.92578H118.384V5.01172L118.427 4.92578L124.612 12.2207ZM54.3574 20.6758C58.9304 20.6758 62.6765 17.0273 62.6765 12.4785C62.6765 7.97266 58.9304 4.28125 54.3574 4.28125C49.7844 4.28125 46.0396 7.97266 46.0396 12.4785C46.0396 16.9844 49.7415 20.6758 54.3574 20.6758ZM54.3145 6.98633C57.4075 6.98633 59.8894 9.43164 59.8894 12.4785C59.8894 15.5254 57.4075 17.9707 54.3145 17.9707C51.2214 17.9707 48.7395 15.5254 48.7395 12.4785C48.7395 9.43164 51.2214 6.98633 54.3145 6.98633ZM105.055 20.6758C109.628 20.6758 113.375 17.0273 113.375 12.4785C113.375 7.97266 109.671 4.28125 105.055 4.28125C100.482 4.28125 96.7366 7.97266 96.7366 12.4785C96.7366 16.9844 100.438 20.6758 105.055 20.6758ZM105.055 6.98633C108.148 6.98633 110.63 9.43164 110.63 12.4785C110.63 15.5254 108.104 17.9707 105.055 17.9707C101.962 17.9707 99.4805 15.5254 99.4805 12.4785C99.4805 9.43164 101.962 6.98633 105.055 6.98633ZM93.3384 4.92578H96.6934L89.1145 12.5215L96.6055 20.0332H93.2954L86.9795 13.7227H84.4543V20.0332H82.0154V4.92578H84.4543V11.2773H87.0244L93.3384 4.92578ZM196.694 4.92578H200.002L192.468 12.5215L199.916 20.0332H196.605L190.334 13.7227H187.764V20.0332H185.325V4.92578H187.764V11.2773H190.334L196.694 4.92578ZM166.641 20.0312H163.939L162.46 16.7715H154.532L153.052 20.0332H150.353L157.103 4.92578H159.889L166.641 20.0312ZM158.497 8.01562L155.623 14.3672H161.372L158.497 8.01562ZM77.4854 12.4785C78.3735 13.2949 78.8794 14.4473 78.8794 15.6543C78.8794 18.0566 76.9194 20.0332 74.4795 20.0762H65.5085V4.92578H74.4795C76.9023 4.92188 78.8713 6.88086 78.8794 9.30273C78.8794 10.5469 78.3125 11.6641 77.4854 12.4785ZM74.4365 7.37305H67.9905V11.2324H74.4365C75.5254 11.2324 76.3955 10.375 76.3955 9.30273C76.3955 8.22852 75.5254 7.37305 74.4365 7.37305ZM67.9905 17.6289H74.4365C75.5264 17.6289 76.3965 16.7266 76.4395 15.6562C76.4395 15.1465 76.2261 14.668 75.8784 14.3145C75.5237 13.9551 75.0293 13.7246 74.4795 13.7246H67.9905V17.6289ZM179.794 11.2773V4.96875H182.277V19.9883H179.794V13.7207H170.866V19.9883H168.385V4.96875H170.866V11.2773H179.794ZM145.037 11.2773C147.477 11.2773 149.48 13.25 149.48 15.6543C149.48 18.0566 147.478 20.0332 145.036 20.0742H136.108V4.92578H148V7.37109H138.592V11.2773H145.037ZM138.593 17.6289H145.039C146.127 17.6289 146.999 16.7266 146.999 15.6562C146.999 14.625 146.127 13.7246 145.039 13.7246H138.593V17.6289Z" fill="#003791"/>
</svg>
